<svg width="176" height="52" fill="none" xmlns="http://www.w3.org/2000/svg"><path fill-rule="evenodd" clip-rule="evenodd" d="M.157 31.674c.24.312.608.384.622.387l48.04 9.798c.006.001.504.118.909-.212.404-.329.31-.804.31-.804l-6.251-37.08a.96.96 0 00-.449-.644c-.395-.239-.965-.051-.965-.051L7.179 17.118c-.132.065-.336.127-.507.452-.17.325-6.494 13.076-6.582 13.256-.09.182-.172.537.067.848zm45.586 6.436l-20.05-11.145 10.339-2.159 9.71 13.304zM8.047 19.227L20.57 26.21 2.736 29.924l5.311-10.697zm1.662-1.172L41.24 5.468l-5.558 17.587L23.31 25.64l-13.6-7.584zM47.363 37.05l-9.779-13.397 4.903-15.52 4.876 28.917zm-3.886 1.898l-38.05-7.76 17.522-3.65 20.528 11.41z" fill="#A3BBC8"/><path d="M75.6 40.36c-2.208 0-4.092-.384-5.652-1.152-1.536-.768-2.736-1.872-3.6-3.312-.84-1.464-1.296-3.204-1.368-5.22a142.903 142.903 0 01-.036-3.312c0-1.2.012-2.328.036-3.384.072-1.992.528-3.696 1.368-5.112.864-1.416 2.076-2.508 3.636-3.276 1.584-.768 3.456-1.152 5.616-1.152 1.752 0 3.288.24 4.608.72 1.32.456 2.412 1.056 3.276 1.8.888.72 1.548 1.5 1.98 2.34.456.84.696 1.62.72 2.34a.627.627 0 01-.18.54c-.144.144-.336.216-.576.216H81.72c-.24 0-.42-.048-.54-.144a1.27 1.27 0 01-.324-.432 5.088 5.088 0 00-.9-1.476c-.408-.504-.96-.924-1.656-1.26-.696-.336-1.596-.504-2.7-.504-1.632 0-2.94.432-3.924 1.296-.96.864-1.476 2.292-1.548 4.284a92.952 92.952 0 000 6.336c.072 2.04.6 3.504 1.584 4.392 1.008.888 2.328 1.332 3.96 1.332 1.08 0 2.04-.192 2.88-.576a4.32 4.32 0 002.016-1.8c.504-.816.756-1.86.756-3.132v-1.116h-4.392a.833.833 0 01-.612-.252.877.877 0 01-.252-.648v-1.908c0-.264.084-.48.252-.648a.833.833 0 01.612-.252h8.604c.264 0 .468.084.612.252a.877.877 0 01.252.648v3.78c0 2.016-.444 3.756-1.332 5.22-.864 1.464-2.112 2.592-3.744 3.384-1.608.792-3.516 1.188-5.724 1.188zM91.483 40a.833.833 0 01-.612-.252.833.833 0 01-.252-.612V15.304c0-.24.084-.444.252-.612a.833.833 0 01.612-.252h2.988c.24 0 .444.084.612.252a.833.833 0 01.252.612v23.832c0 .24-.084.444-.252.612a.833.833 0 01-.612.252h-2.988zm16.691.36c-2.664 0-4.776-.768-6.336-2.304-1.56-1.536-2.4-3.72-2.52-6.552a9.31 9.31 0 01-.036-.9c0-.384.012-.684.036-.9.096-1.824.504-3.384 1.224-4.68.744-1.32 1.764-2.328 3.06-3.024 1.296-.72 2.82-1.08 4.572-1.08 1.944 0 3.576.408 4.896 1.224 1.32.792 2.316 1.908 2.988 3.348.672 1.416 1.008 3.06 1.008 4.932v.756c0 .24-.084.444-.252.612a.877.877 0 01-.648.252h-11.952v.288c.024.84.18 1.62.468 2.34.312.696.756 1.26 1.332 1.692.6.432 1.308.648 2.124.648.672 0 1.236-.096 1.692-.288a4.48 4.48 0 001.116-.72c.288-.264.492-.48.612-.648.216-.288.384-.456.504-.504.144-.072.348-.108.612-.108h3.096c.24 0 .432.072.576.216.168.144.24.324.216.54-.024.384-.228.852-.612 1.404-.36.552-.888 1.092-1.584 1.62-.696.528-1.572.972-2.628 1.332-1.032.336-2.22.504-3.564.504zm-3.96-11.34h7.956v-.108c0-.936-.156-1.752-.468-2.448-.312-.72-.768-1.272-1.368-1.656-.6-.408-1.32-.612-2.16-.612-.84 0-1.56.204-2.16.612-.6.384-1.056.936-1.368 1.656-.288.696-.432 1.512-.432 2.448v.108zm24.738 11.34c-2.664 0-4.776-.768-6.336-2.304-1.56-1.536-2.4-3.72-2.52-6.552a9.31 9.31 0 01-.036-.9c0-.384.012-.684.036-.9.096-1.824.504-3.384 1.224-4.68.744-1.32 1.764-2.328 3.06-3.024 1.296-.72 2.82-1.08 4.572-1.08 1.944 0 3.576.408 4.896 1.224 1.32.792 2.316 1.908 2.988 3.348.672 1.416 1.008 3.06 1.008 4.932v.756c0 .24-.084.444-.252.612a.877.877 0 01-.648.252h-11.952v.288c.024.84.18 1.62.468 2.34.312.696.756 1.26 1.332 1.692.6.432 1.308.648 2.124.648.672 0 1.236-.096 1.692-.288a4.48 4.48 0 001.116-.72c.288-.264.492-.48.612-.648.216-.288.384-.456.504-.504.144-.072.348-.108.612-.108h3.096c.24 0 .432.072.576.216.168.144.24.324.216.54-.024.384-.228.852-.612 1.404-.36.552-.888 1.092-1.584 1.62-.696.528-1.572.972-2.628 1.332-1.032.336-2.22.504-3.564.504zm-3.96-11.34h7.956v-.108c0-.936-.156-1.752-.468-2.448-.312-.72-.768-1.272-1.368-1.656-.6-.408-1.32-.612-2.16-.612-.84 0-1.56.204-2.16.612-.6.384-1.056.936-1.368 1.656-.288.696-.432 1.512-.432 2.448v.108zM142.313 40a.833.833 0 01-.612-.252.833.833 0 01-.252-.612v-3.564c0-.264.084-.48.252-.648a.833.833 0 01.612-.252h3.6c.24 0 .444.084.612.252a.877.877 0 01.252.648v3.564c0 .24-.084.444-.252.612a.833.833 0 01-.612.252h-3.6z" fill="#436372"/></svg>