<svg width="19" height="17" viewBox="0 0 19 17" fill="none" xmlns="http://www.w3.org/2000/svg">
<path fill-rule="evenodd" clip-rule="evenodd" d="M9.91299 16.2445C9.81777 16.2445 9.72244 16.2265 9.63352 16.1882C9.28013 16.0386 0.983154 12.4387 0.983154 5.42859C1.07436 2.7788 3.19015 0.721191 5.80066 0.721191C7.54417 0.721191 9.06681 1.63921 9.91299 3.0311C10.7596 1.63921 12.2824 0.721191 14.0252 0.721191C16.6345 0.721191 18.7503 2.7788 18.8421 5.40474C18.8421 12.4387 10.5452 16.0386 10.1929 16.1882C10.1034 16.2265 10.0082 16.2445 9.91299 16.2445ZM5.80066 2.10623C3.95438 2.10623 2.45761 3.5759 2.39284 5.45246C2.39329 10.8596 8.51772 14.1149 9.91299 14.7869C11.3082 14.1149 17.4331 10.8569 17.4331 5.42859C17.3677 3.5759 15.8702 2.10623 14.0252 2.10623C12.1802 2.10623 10.6829 3.5759 10.6174 5.45246C10.6049 5.82502 10.2926 6.12145 9.91299 6.12145V6.12145C9.53258 6.12145 9.22107 5.82502 9.20836 5.45246C9.1436 3.5759 7.6467 2.10623 5.80066 2.10623Z" fill="#243F4D"/>
</svg>
