<svg width="21" height="21" viewBox="0 0 21 21" fill="none" xmlns="http://www.w3.org/2000/svg">
<path fill-rule="evenodd" clip-rule="evenodd" d="M2.14576 4.88055C0.959118 4.88055 -0.00012207 3.92135 -0.00012207 2.73502C-0.00012207 1.54804 0.959118 0.589176 2.14576 0.589176C3.33262 0.589176 4.29174 1.54804 4.29174 2.73502C4.29174 3.92135 3.33262 4.88055 2.14576 4.88055ZM2.14576 12.7499C0.959118 12.7499 -0.00012207 11.7897 -0.00012207 10.603C-0.00012207 9.41669 0.959118 8.45783 2.14576 8.45783C3.33262 8.45783 4.29174 9.41669 4.29174 10.603C4.29174 11.7897 3.33262 12.7499 2.14576 12.7499ZM-0.00012207 18.472C-0.00012207 19.659 0.959118 20.6179 2.14576 20.6179C3.33262 20.6179 4.29174 19.659 4.29174 18.472C4.29174 17.2854 3.33262 16.3262 2.14576 16.3262C0.959118 16.3262 -0.00012207 17.2854 -0.00012207 18.472ZM10.0144 4.88055C8.82762 4.88055 7.86838 3.92135 7.86838 2.73502C7.86838 1.54804 8.82762 0.589176 10.0144 0.589176C11.2011 0.589176 12.1602 1.54804 12.1602 2.73502C12.1602 3.92135 11.2011 4.88055 10.0144 4.88055ZM7.86838 10.603C7.86838 11.7897 8.82762 12.7499 10.0144 12.7499C11.2011 12.7499 12.1602 11.7897 12.1602 10.603C12.1602 9.41669 11.2011 8.45783 10.0144 8.45783C8.82762 8.45783 7.86838 9.41669 7.86838 10.603ZM10.0144 20.6179C8.82762 20.6179 7.86838 19.659 7.86838 18.472C7.86838 17.2854 8.82762 16.3262 10.0144 16.3262C11.2011 16.3262 12.1602 17.2854 12.1602 18.472C12.1602 19.659 11.2011 20.6179 10.0144 20.6179ZM15.737 2.73502C15.737 3.92135 16.6962 4.88055 17.8829 4.88055C19.0696 4.88055 20.0289 3.92135 20.0289 2.73502C20.0289 1.54804 19.0696 0.589176 17.8829 0.589176C16.6962 0.589176 15.737 1.54804 15.737 2.73502ZM17.8829 12.7499C16.6962 12.7499 15.737 11.7897 15.737 10.603C15.737 9.41669 16.6962 8.45783 17.8829 8.45783C19.0696 8.45783 20.0289 9.41669 20.0289 10.603C20.0289 11.7897 19.0696 12.7499 17.8829 12.7499ZM15.737 18.472C15.737 19.659 16.6962 20.6179 17.8829 20.6179C19.0696 20.6179 20.0289 19.659 20.0289 18.472C20.0289 17.2854 19.0696 16.3262 17.8829 16.3262C16.6962 16.3262 15.737 17.2854 15.737 18.472Z" fill="white"/>
</svg>
